ply
format ascii 1.0
comment VCGLIB generated
element vertex 114
property float x
property float y
property float z
element face 224
property list uchar int vertex_indices
end_header
-1.2 0 -1 
-1.1591 -0.3105 -1 
-1.1591 0.3105 -1 
-1.0392 -0.5999 -1 
-1.0392 0.5999 -1 
-0.8485 -0.8485 -1 
-0.8485 0.8485 -1 
-0.6 -1.0392 -1 
-0.5999 1.0392 -1 
-0.3105 -1.1591 -1 
-0.3105 1.1591 -1 
0 -1.2 -1 
0 0 -1 
0 1.2 -1 
0.3105 -1.1591 -1 
0.3105 1.1591 -1 
0.6 -1.0392 -1 
0.6 1.0392 -1 
0.8485 -0.8485 -1 
0.8485 0.8485 -1 
1.0392 -0.6 -1 
1.0392 0.5999 -1 
1.1591 -0.3105 -1 
1.1591 0.3105 -1 
1.2 0 -1 
-1.2 0 0 
-1.1591 -0.3105 0 
-1.1591 0.3105 0 
-1.0392 -0.5999 0 
-1.0392 0.5999 0 
-0.8485 -0.8485 0 
-0.8485 0.8485 0 
-0.6 -1.0392 0 
-0.5999 1.0392 0 
-0.5 -0.0001 0 
-0.5 0 0 
-0.4747 -0.1272 0 
-0.4747 0.1272 0 
-0.4619 -0.1913 0 
-0.4619 0.1912 0 
-0.4619 0.1913 0 
-0.4618 -0.1914 0 
-0.4256 -0.2457 0 
-0.4256 0.2457 0 
-0.3536 0.3534 0 
-0.3535 -0.3535 0 
-0.3535 0.3535 0 
-0.3534 -0.3536 0 
-0.3105 -1.1591 0 
-0.3105 1.1591 0 
-0.2457 -0.4255 0 
-0.2457 0.4256 0 
-0.1914 0.4618 0 
-0.1913 -0.4619 0 
-0.1913 0.4619 0 
-0.1912 -0.4619 0 
-0.1272 -0.4747 0 
-0.1272 0.4747 0 
-0.0001 0.5 0 
0 -1.2 0 
0 -0.5 0 
0 0.5 0 
0 1.2 0 
0.0001 -0.5 0 
0.1272 -0.4747 0 
0.1272 0.4747 0 
0.1912 0.4619 0 
0.1913 -0.4619 0 
0.1913 0.4619 0 
0.1914 -0.4618 0 
0.2457 -0.4255 0 
0.2457 0.4255 0 
0.3105 -1.1591 0 
0.3105 1.1591 0 
0.3534 0.3536 0 
0.3535 -0.3535 0 
0.3535 0.3535 0 
0.3536 -0.3534 0 
0.4255 -0.2457 0 
0.4256 0.2457 0 
0.4618 0.1914 0 
0.4619 -0.1913 0 
0.4619 -0.1912 0 
0.4619 0.1913 0 
0.4747 -0.1272 0 
0.4747 0.1272 0 
0.5 0 0 
0.5 0.0001 0 
0.6 -1.0392 0 
0.6 1.0392 0 
0.8485 -0.8485 0 
0.8485 0.8485 0 
1.0392 -0.6 0 
1.0392 0.5999 0 
1.1591 -0.3105 0 
1.1591 0.3105 0 
1.2 0 0 
-0.5 0 1.0005 
-0.4619 -0.1913 1.0005 
-0.4619 0.1913 1.0005 
-0.3535 -0.3535 1.0005 
-0.3535 0.3535 1.0005 
-0.1913 -0.4619 1.0005 
-0.1913 0.4619 1.0005 
0 -0.5 1.0005 
0 0 1.0005 
0 0.5 1.0005 
0.1913 -0.4619 1.0005 
0.1913 0.4619 1.0005 
0.3535 -0.3535 1.0005 
0.3535 0.3535 1.0005 
0.4619 -0.1913 1.0005 
0.4619 0.1913 1.0005 
0.5 0 1.0005 
3 24 96 22 
3 94 22 96 
3 22 94 20 
3 92 20 94 
3 20 92 18 
3 90 18 92 
3 18 90 16 
3 88 16 90 
3 16 88 14 
3 72 14 88 
3 14 72 11 
3 59 11 72 
3 11 59 9 
3 48 9 59 
3 9 48 7 
3 32 7 48 
3 7 32 5 
3 30 5 32 
3 5 30 3 
3 28 3 30 
3 3 28 1 
3 26 1 28 
3 1 26 0 
3 25 0 26 
3 0 25 2 
3 27 2 25 
3 2 27 4 
3 29 4 27 
3 4 29 6 
3 31 6 29 
3 6 31 8 
3 33 8 31 
3 8 33 10 
3 49 10 33 
3 10 49 13 
3 62 13 49 
3 13 62 15 
3 73 15 62 
3 15 73 17 
3 89 17 73 
3 17 89 19 
3 91 19 89 
3 19 91 21 
3 93 21 91 
3 21 93 23 
3 95 23 93 
3 23 95 24 
3 96 24 95 
3 24 22 12 
3 22 20 12 
3 20 18 12 
3 18 16 12 
3 16 14 12 
3 14 11 12 
3 11 9 12 
3 9 7 12 
3 7 5 12 
3 5 3 12 
3 3 1 12 
3 1 0 12 
3 0 2 12 
3 2 4 12 
3 4 6 12 
3 6 8 12 
3 8 10 12 
3 10 13 12 
3 13 15 12 
3 15 17 12 
3 17 19 12 
3 19 21 12 
3 21 23 12 
3 23 24 12 
3 111 113 105 
3 109 111 105 
3 107 109 105 
3 104 107 105 
3 102 104 105 
3 100 102 105 
3 98 100 105 
3 97 98 105 
3 99 97 105 
3 101 99 105 
3 103 101 105 
3 106 103 105 
3 108 106 105 
3 110 108 105 
3 112 110 105 
3 113 112 105 
3 86 96 95 
3 85 87 95 
3 87 86 95 
3 85 95 93 
3 79 80 93 
3 80 83 93 
3 83 85 93 
3 79 93 91 
3 76 79 91 
3 76 91 89 
3 71 74 89 
3 74 76 89 
3 71 89 73 
3 65 66 73 
3 66 68 73 
3 68 71 73 
3 62 65 73 
3 61 65 62 
3 70 72 88 
3 64 72 67 
3 67 72 69 
3 69 72 70 
3 75 88 90 
3 70 88 75 
3 78 90 92 
3 75 90 77 
3 77 90 78 
3 84 92 94 
3 78 92 81 
3 81 92 82 
3 82 92 84 
3 86 94 96 
3 84 94 86 
3 59 72 64 
3 59 64 63 
3 59 63 60 
3 49 61 62 
3 49 58 61 
3 49 57 58 
3 56 59 60 
3 48 59 56 
3 49 54 57 
3 49 52 54 
3 49 51 52 
3 33 51 49 
3 48 56 55 
3 48 55 53 
3 48 53 50 
3 32 48 50 
3 33 46 51 
3 31 46 33 
3 32 50 47 
3 32 47 45 
3 30 32 45 
3 31 44 46 
3 31 43 44 
3 29 43 31 
3 30 45 42 
3 28 30 42 
3 29 40 43 
3 29 39 40 
3 29 37 39 
3 27 37 29 
3 28 42 41 
3 28 41 38 
3 28 38 36 
3 26 28 36 
3 27 35 37 
3 25 35 27 
3 26 36 34 
3 26 34 35 
3 25 26 35 
3 86 112 113 
3 87 112 86 
3 83 112 85 
3 85 112 87 
3 83 110 112 
3 80 110 83 
3 82 113 111 
3 81 82 111 
3 82 84 113 
3 84 86 113 
3 76 110 79 
3 79 110 80 
3 76 108 110 
3 74 108 76 
3 77 111 109 
3 75 77 109 
3 77 78 111 
3 78 81 111 
3 68 108 71 
3 71 108 74 
3 68 106 108 
3 66 106 68 
3 69 109 107 
3 67 69 107 
3 69 70 109 
3 70 75 109 
3 61 106 65 
3 65 106 66 
3 61 103 106 
3 58 103 61 
3 63 107 104 
3 60 63 104 
3 63 64 107 
3 64 67 107 
3 54 103 57 
3 57 103 58 
3 54 101 103 
3 52 101 54 
3 55 104 102 
3 53 55 102 
3 55 56 104 
3 56 60 104 
3 46 101 51 
3 51 101 52 
3 46 99 101 
3 44 99 46 
3 47 102 100 
3 45 47 100 
3 47 50 102 
3 50 53 102 
3 40 99 43 
3 43 99 44 
3 40 97 99 
3 39 97 40 
3 41 100 98 
3 38 41 98 
3 41 42 100 
3 42 45 100 
3 35 97 37 
3 37 97 39 
3 34 98 97 
3 35 34 97 
3 34 36 98 
3 36 38 98 
